fd_4_states
version=1
nRows=27
nColumns=17
inDegrees=yes

# SIMM Motion File Header:
name fd_4_states
datacolumns 17
datarows 27
otherdata 1
range 0.709934 0.729062
endheader
time	/jointset/r_shoulder/r_shoulder_elev/value	/jointset/r_shoulder/r_shoulder_elev/speed	/jointset/r_elbow/r_elbow_flex/value	/jointset/r_elbow/r_elbow_flex/speed	/forceset/TRIlong/activation	/forceset/TRIlong/fiber_length	/forceset/TRIlat/activation	/forceset/TRIlat/fiber_length	/forceset/TRImed/activation	/forceset/TRImed/fiber_length	/forceset/BIClong/activation	/forceset/BIClong/fiber_length	/forceset/BICshort/activation	/forceset/BICshort/fiber_length	/forceset/BRA/activation	/forceset/BRA/fiber_length
      0.709934	      4.425915	    -78.647709	     79.911091	   -267.503153	      0.043704	      0.169154	      0.413642	      0.099623	      0.406006	      0.094691	      0.147196	      0.103204	      0.040764	      0.104520	      0.034148	      0.072229
      0.710342	      4.393791	    -78.600392	     79.801755	   -267.708349	      0.043568	      0.169099	      0.412529	      0.099586	      0.404847	      0.094654	      0.146903	      0.103308	      0.040646	      0.104613	      0.034110	      0.072269
      0.710908	      4.349319	    -78.529980	     79.650135	   -268.004141	      0.043380	      0.169022	      0.410669	      0.099535	      0.402923	      0.094604	      0.146502	      0.103452	      0.040482	      0.104743	      0.034068	      0.072325
      0.712734	      4.206122	    -78.276647	     79.159749	   -269.004822	      0.042785	      0.168774	      0.404892	      0.099374	      0.396948	      0.094443	      0.145238	      0.103917	      0.039965	      0.105163	      0.033936	      0.072510
      0.713295	      4.162246	    -78.191289	     79.008793	   -269.325091	      0.042606	      0.168698	      0.403185	      0.099325	      0.395182	      0.094394	      0.144858	      0.104060	      0.039809	      0.105290	      0.033896	      0.072562
      0.714019	      4.105720	    -78.080392	     78.813808	   -269.730890	      0.042376	      0.168600	      0.401027	      0.099262	      0.392950	      0.094332	      0.144375	      0.104244	      0.039609	      0.105456	      0.033845	      0.072634
      0.714966	      4.031805	    -77.930522	     78.557973	   -270.262057	      0.042080	      0.168471	      0.398274	      0.099180	      0.390101	      0.094250	      0.143752	      0.104485	      0.039351	      0.105674	      0.033779	      0.072725
      0.715609	      3.981779	    -77.828771	     78.384257	   -270.612041	      0.041881	      0.168384	      0.396454	      0.099124	      0.388218	      0.094194	      0.143337	      0.104649	      0.039178	      0.105821	      0.033735	      0.072793
      0.716251	      3.931819	    -77.723996	     78.210317	   -270.964226	      0.041684	      0.168296	      0.394670	      0.099068	      0.386372	      0.094139	      0.142926	      0.104812	      0.039007	      0.105969	      0.033691	      0.072854
      0.716893	      3.881927	    -77.619724	     78.036153	   -271.306214	      0.041489	      0.168209	      0.392921	      0.099013	      0.384562	      0.094083	      0.142520	      0.104976	      0.038837	      0.106116	      0.033648	      0.072918
      0.717794	      3.812123	    -77.470970	     77.791722	   -271.780771	      0.041219	      0.168087	      0.390528	      0.098935	      0.382085	      0.094006	      0.141960	      0.105205	      0.038602	      0.106324	      0.033588	      0.073005
      0.718444	      3.761803	    -77.364542	     77.614959	   -272.109955	      0.041026	      0.167998	      0.388841	      0.098879	      0.380338	      0.093949	      0.141562	      0.105370	      0.038435	      0.106473	      0.033545	      0.073074
      0.719093	      3.711552	    -77.255503	     77.437983	   -272.440049	      0.040835	      0.167910	      0.387187	      0.098822	      0.378626	      0.093893	      0.141168	      0.105536	      0.038268	      0.106623	      0.033502	      0.073134
      0.719743	      3.661371	    -77.147492	     77.260795	   -272.758332	      0.040646	      0.167821	      0.385566	      0.098766	      0.376947	      0.093837	      0.140779	      0.105701	      0.038104	      0.106773	      0.033460	      0.073200
      0.720619	      3.593856	    -76.999583	     77.021679	   -273.182758	      0.040394	      0.167702	      0.383457	      0.098690	      0.374789	      0.093761	      0.140194	      0.105924	      0.037884	      0.106974	      0.033386	      0.073284
      0.721279	      3.543143	    -76.888649	     76.841524	   -273.492097	      0.040207	      0.167613	      0.381943	      0.098633	      0.373275	      0.093704	      0.139665	      0.106093	      0.037721	      0.107126	      0.033306	      0.073354
      0.721938	      3.492504	    -76.773640	     76.661163	   -273.808743	      0.040021	      0.167523	      0.380458	      0.098575	      0.371790	      0.093646	      0.139142	      0.106263	      0.037559	      0.107278	      0.033228	      0.073415
      0.722597	      3.441941	    -76.658367	     76.480595	   -274.119537	      0.039837	      0.167433	      0.379003	      0.098518	      0.370334	      0.093589	      0.138626	      0.106432	      0.037399	      0.107430	      0.033149	      0.073483
      0.723430	      3.378118	    -76.507781	     76.251988	   -274.519791	      0.039607	      0.167320	      0.377203	      0.098445	      0.368533	      0.093516	      0.137983	      0.106646	      0.037199	      0.107623	      0.033052	      0.073562
      0.724089	      3.327735	    -76.388133	     76.070960	   -274.830707	      0.039427	      0.167230	      0.375811	      0.098387	      0.367139	      0.093458	      0.137482	      0.106815	      0.037042	      0.107775	      0.032975	      0.073632
      0.724748	      3.277431	    -76.263878	     75.889724	   -275.151029	      0.039249	      0.167140	      0.374446	      0.098329	      0.365772	      0.093400	      0.136987	      0.106984	      0.036887	      0.107927	      0.032900	      0.073693
      0.725407	      3.227209	    -76.139054	     75.708278	   -275.466688	      0.039073	      0.167050	      0.373107	      0.098271	      0.364431	      0.093342	      0.136498	      0.107153	      0.036733	      0.108079	      0.032825	      0.073760
      0.726243	      3.163680	    -75.975595	     75.478021	   -275.875550	      0.038852	      0.166937	      0.371447	      0.098197	      0.362768	      0.093268	      0.135888	      0.107367	      0.036540	      0.108272	      0.032731	      0.073839
      0.726905	      3.113427	    -75.845122	     75.295284	   -276.195278	      0.038678	      0.166847	      0.370159	      0.098139	      0.361479	      0.093210	      0.135411	      0.107537	      0.036389	      0.108425	      0.032657	      0.073909
      0.727567	      3.063262	    -75.709730	     75.112332	   -276.525447	      0.038507	      0.166756	      0.368896	      0.098080	      0.360213	      0.093151	      0.134939	      0.107706	      0.036239	      0.108577	      0.032584	      0.073971
      0.728229	      3.013187	    -75.573498	     74.929163	   -276.851911	      0.038337	      0.166666	      0.367658	      0.098022	      0.358972	      0.093093	      0.134474	      0.107876	      0.036091	      0.108730	      0.032511	      0.074038
      0.729062	      2.950273	    -75.396328	     74.698246	   -277.273134	      0.038125	      0.166553	      0.366131	      0.097948	      0.357442	      0.093019	      0.133897	      0.108089	      0.035906	      0.108923	      0.032421	      0.074117
